<?xml version="1.0" encoding="utf-8"?>
<COLLADA xmlns="http://www.collada.org/2005/11/COLLADASchema" version="1.4.1" xmlns:xsi="http://www.w3.org/2001/XMLSchema-instance">
  <asset>
    <contributor>
      <author>Blender User</author>
      <authoring_tool>Blender 4.5.3 LTS commit date:2025-09-08, commit time:12:46, hash:67807e1800cc</authoring_tool>
    </contributor>
    <created>2025-11-11T18:17:15</created>
    <modified>2025-11-11T18:17:15</modified>
    <unit name="meter" meter="1"/>
    <up_axis>Z_UP</up_axis>
  </asset>
  <library_cameras>
    <camera id="Camera_001-camera" name="Camera.001">
      <optics>
        <technique_common>
          <perspective>
            <xfov sid="xfov">39.59775</xfov>
            <aspect_ratio>1.777778</aspect_ratio>
            <znear sid="znear">0.1</znear>
            <zfar sid="zfar">100</zfar>
          </perspective>
        </technique_common>
      </optics>
      <extra>
        <technique profile="blender">
          <shiftx sid="shiftx" type="float">0</shiftx>
          <shifty sid="shifty" type="float">0</shifty>
          <dof_distance sid="dof_distance" type="float">10</dof_distance>
        </technique>
      </extra>
    </camera>
    <camera id="Camera-camera" name="Camera">
      <optics>
        <technique_common>
          <perspective>
            <xfov sid="xfov">39.59775</xfov>
            <aspect_ratio>1.777778</aspect_ratio>
            <znear sid="znear">0.1</znear>
            <zfar sid="zfar">100</zfar>
          </perspective>
        </technique_common>
      </optics>
      <extra>
        <technique profile="blender">
          <shiftx sid="shiftx" type="float">0</shiftx>
          <shifty sid="shifty" type="float">0</shifty>
          <dof_distance sid="dof_distance" type="float">10</dof_distance>
        </technique>
      </extra>
    </camera>
  </library_cameras>
  <library_lights>
    <light id="Light-light" name="Light">
      <technique_common>
        <point>
          <color sid="color">1000 1000 1000</color>
          <constant_attenuation>1</constant_attenuation>
          <linear_attenuation>0</linear_attenuation>
          <quadratic_attenuation>0</quadratic_attenuation>
        </point>
      </technique_common>
      <extra>
        <technique profile="blender">
          <type sid="type" type="int">0</type>
          <flag sid="flag" type="int">0</flag>
          <mode sid="mode" type="int">2097153</mode>
          <red sid="red" type="float">1</red>
          <green sid="green" type="float">1</green>
          <blue sid="blue" type="float">1</blue>
          <energy sid="blender_energy" type="float">1000</energy>
          <spotsize sid="spotsize" type="float">75</spotsize>
          <spotblend sid="spotblend" type="float">0.15</spotblend>
          <clipsta sid="clipsta" type="float">0.04999995</clipsta>
          <clipend sid="clipend" type="float">40</clipend>
          <radius sid="radius" type="float">0.1</radius>
          <area_shape sid="area_shape" type="int">1</area_shape>
          <area_size sid="area_size" type="float">0.1</area_size>
          <area_sizey sid="area_sizey" type="float">0.1</area_sizey>
          <area_sizez sid="area_sizez" type="float">1</area_sizez>
        </technique>
      </extra>
    </light>
  </library_lights>
  <library_effects>
    <effect id="Material_002-effect">
      <profile_COMMON>
        <technique sid="common">
          <lambert>
            <emission>
              <color sid="emission">0 0 0 1</color>
            </emission>
            <diffuse>
              <color sid="diffuse">0.8000075 0.1423963 0.00303221 1</color>
            </diffuse>
            <index_of_refraction>
              <float sid="ior">1.5</float>
            </index_of_refraction>
          </lambert>
        </technique>
      </profile_COMMON>
    </effect>
    <effect id="Material_001-effect">
      <profile_COMMON>
        <technique sid="common">
          <lambert>
            <emission>
              <color sid="emission">0 0 0 1</color>
            </emission>
            <diffuse>
              <color sid="diffuse">0.8000547 0.1603341 2.02574e-4 1</color>
            </diffuse>
            <index_of_refraction>
              <float sid="ior">1.5</float>
            </index_of_refraction>
          </lambert>
        </technique>
      </profile_COMMON>
    </effect>
  </library_effects>
  <library_images/>
  <library_materials>
    <material id="Material_002-material" name="Material.002">
      <instance_effect url="#Material_002-effect"/>
    </material>
    <material id="Material_001-material" name="Material.001">
      <instance_effect url="#Material_001-effect"/>
    </material>
  </library_materials>
  <library_geometries>
    <geometry id="Cylinder-mesh" name="Cylinder">
      <mesh>
        <source id="Cylinder-mesh-positions">
          <float_array id="Cylinder-mesh-positions-array" count="297">0.007521033 1.013814 -0.9997156 -0.01099967 2.040299 1.000576 0.2025714 0.9941976 -0.9996994 0.386093 2.000364 1.000609 0.3900471 0.936906 -0.9996946 0.7677648 1.883727 1.000619 0.5627435 0.8441407 -0.9997015 1.119349 1.694871 1.000605 0.714024 0.7194666 -0.9997198 1.427333 1.441053 1.000568 0.8380749 0.5676748 -0.9997488 1.679881 1.132028 1.000509 0.930129 0.3945985 -0.9997873 1.867289 0.7796714 1.00043 0.9866489 0.206889 -0.999834 1.982355 0.3975234 1.000335 1.005462 0.01175987 -0.9998869 2.020657 2.70363e-4 1.000228 0.9858466 -0.18329 -0.999944 1.980722 -0.3968217 1.000111 0.9285552 -0.3707653 -1.000003 1.864085 -0.7784928 0.9999908 0.83579 -0.5434612 -1.000062 1.675229 -1.130075 0.9998704 0.7111158 -0.6947413 -1.000119 1.421412 -1.438058 0.9997553 0.559324 -0.8187917 -1.000171 1.112387 -1.690606 0.9996495 0.3862475 -0.9108455 -1.000216 0.7600296 -1.878014 0.9995575 0.1985378 -0.9673649 -1.000253 0.3778812 -1.993079 0.9994824 0.003408432 -0.9861781 -1.00028 -0.01937246 -2.03138 0.9994273 -0.1916419 -0.966562 -1.000296 -0.4164652 -1.991444 0.9993942 -0.3791176 -0.9092705 -1.000301 -0.7981371 -1.874807 0.9993845 -0.5518139 -0.8165051 -1.000294 -1.149721 -1.685951 0.9993987 -0.7030944 -0.691831 -1.000276 -1.457705 -1.432134 0.9994359 -0.8271453 -0.5400392 -1.000247 -1.710253 -1.123109 0.9994949 -0.9191994 -0.3669629 -1.000208 -1.897661 -0.7707517 0.9995733 -0.9757193 -0.1792533 -1.000162 -2.012727 -0.3886038 0.9996683 -0.9945328 0.01587557 -1.000109 -2.051029 0.00864923 0.999776 -0.974917 0.2109256 -1.000051 -2.011094 0.4057413 0.9998925 -0.9176256 0.3984009 -0.9999923 -1.894458 0.7874125 1.000013 -0.8248604 0.5710968 -0.9999333 -1.705602 1.138995 1.000133 -0.7001863 0.7223768 -0.9998767 -1.451784 1.446978 1.000248 -0.5483944 0.8464273 -0.9998248 -1.142759 1.699526 1.000354 -0.375318 0.938481 -0.9997795 -0.7904019 1.886933 1.000446 -0.1876083 0.9950006 -0.9997426 -0.4082534 2.001998 1.000521 -0.001800358 0.9902442 0.7060173 0.19325 0.9706281 0.7060335 0.3807256 0.9133365 0.7060383 0.553422 0.8205712 0.7060314 0.7047025 0.6958971 0.7060132 0.8287534 0.5441052 0.7059842 0.9208076 0.371029 0.7059456 0.9773274 0.1833195 0.705899 0.996141 -0.01180946 0.705846 0.9765251 -0.2068595 0.7057888 0.9192337 -0.3943348 0.7057296 0.8264685 -0.5670307 0.7056705 0.7017944 -0.7183108 0.705614 0.5500025 -0.8423612 0.7055621 0.3769261 -0.934415 0.7055168 0.1892163 -0.9909344 0.7054799 -0.005912899 -1.009748 0.7054529 -0.2009633 -0.9901316 0.7054367 -0.388439 -0.93284 0.7054319 -0.5611354 -0.8400747 0.7054388 -0.7124158 -0.7154005 0.7054571 -0.8364667 -0.5636087 0.7054861 -0.9285209 -0.3905324 0.7055246 -0.9850407 -0.2028229 0.7055712 -1.003854 -0.007693827 0.7056242 -0.9842385 0.1873561 0.7056813 -0.9269471 0.3748314 0.7057406 -0.8341819 0.5475273 0.7057996 -0.7095077 0.6988073 0.7058562 -0.5577158 0.8228577 0.7059081 -0.3846395 0.9149115 0.7059534 -0.1969297 0.971431 0.7059903 0.4727857 -0.8648186 -1.000193 0.9362083 -1.78431 0.9996035 0.4634643 -0.8883881 0.7055395</float_array>
          <technique_common>
            <accessor source="#Cylinder-mesh-positions-array" count="99" stride="3">
              <param name="X" type="float"/>
              <param name="Y" type="float"/>
              <param name="Z" type="float"/>
            </accessor>
          </technique_common>
        </source>
        <source id="Cylinder-mesh-normals">
          <float_array id="Cylinder-mesh-normals-array" count="582">0.02725511 0.2702127 -0.9624148 0.07958847 0.2603584 -0.9622262 0.1291598 0.2405219 -0.962012 0.1740781 0.2113679 -0.9617799 0.2125925 0.1739231 -0.961538 0.2431625 0.1295452 -0.961296 0.264529 0.07988941 -0.9610631 0.2757713 0.02684986 -0.9608483 0.2763579 -0.02751094 -0.9606609 0.2661875 -0.08104157 -0.9605085 0.2455986 -0.1315968 -0.9603977 0.2153687 -0.1771322 -0.9603336 0.176688 -0.2157995 -0.9603186 0.131108 -0.2460314 -0.9603537 0.0804677 -0.2666179 -0.9604373 0.02681654 -0.2767558 -0.9605661 -0.02768617 -0.2760863 -0.960734 -0.08086681 -0.2646998 -0.9609343 -0.1306345 -0.2431234 -0.9611585 -0.1750683 -0.2122882 -0.9613974 -0.212491 -0.173474 -0.9616416 -0.2415304 -0.1282488 -0.9618812 -0.2611578 -0.07839643 -0.9621074 -0.2707171 -0.02583992 -0.9623121 -0.2699351 0.02742838 -0.9624879 -0.2589167 0.07942819 -0.9626284 -0.2381305 0.1282425 -0.9627293 -0.2083849 0.1720966 -0.9627869 -0.1707957 0.2093938 -0.9627997 -0.1267472 0.2387793 -0.9627667 -1.12334e-4 -2.81276e-4 1 -0.0778461 0.2591688 -0.9626898 -0.02587878 0.2697913 -0.9625711 1.11039e-4 2.88212e-4 -1 -0.09596353 0.995297 0.01322853 -0.2882975 0.95747 0.01165455 -0.4695603 0.8828479 0.009632885 -0.632786 0.774293 0.00724101 -0.7716963 0.6359748 0.004570603 -0.8809486 0.473209 0.001724481 -0.9563404 0.2922528 -0.00118792 -0.9949729 0.1000632 -0.004054665 -0.9953617 -0.09596621 -0.006765305 -0.957495 -0.288303 -0.009216129 -0.8828333 -0.4695503 -0.01131266 -0.7742493 -0.6327478 -0.01297426 -0.6359188 -0.7716266 -0.01413732 -0.4731588 -0.8808537 -0.01475721 -0.2922197 -0.9562366 -0.01481002 -0.1000534 -0.9948794 -0.01429402 0.0959624 -0.9952971 -0.01322841 0.2882966 -0.9574703 -0.01165461 0.4695609 -0.8828477 -0.009633004 0.6327858 -0.7742931 -0.00724101 0.7716966 -0.6359746 -0.004570662 0.8809487 -0.4732089 -0.001724481 0.9563403 -0.2922533 0.00118786 0.9949731 -0.1000613 0.004054427 0.9953618 0.09596461 0.006765484 0.9574954 0.2883015 0.009216129 0.8828336 0.4695498 0.01131266 0.7742493 0.6327479 0.01297426 0.6359184 0.7716268 0.01413732 0.4731584 0.8808537 0.01475709 0.2922207 0.9562363 0.0148099 0.1000546 0.9948793 0.01429384 0.4695609 -0.8828476 -0.009632945 0.1311079 -0.2460319 -0.9603536 0.02725523 0.270213 -0.9624148 0.07958906 0.2603581 -0.9622263 0.1291598 0.2405221 -0.9620119 0.1740787 0.2113682 -0.9617797 0.2125927 0.1739231 -0.9615378 0.2431622 0.1295465 -0.961296 0.2645289 0.07988953 -0.961063 0.275771 0.0268476 -0.9608484 0.2763584 -0.02750992 -0.9606609 0.2661867 -0.08104318 -0.9605087 0.2455982 -0.1315969 -0.9603977 0.2153689 -0.1771324 -0.9603335 0.176689 -0.2157993 -0.9603186 0.131107 -0.2460315 -0.9603539 0.08046716 -0.2666178 -0.9604374 0.02681654 -0.276756 -0.960566 -0.02768588 -0.2760863 -0.960734 -0.08086615 -0.2646998 -0.9609343 -0.1306346 -0.2431235 -0.9611585 -0.1750681 -0.2122883 -0.9613974 -0.2124923 -0.1734735 -0.9616413 -0.2415307 -0.1282488 -0.9618811 -0.2611581 -0.07839626 -0.9621073 -0.2707171 -0.02584081 -0.9623121 -0.2699353 0.0274291 -0.9624877 -0.2589169 0.07942712 -0.9626284 -0.2381305 0.1282429 -0.9627293 -0.2083853 0.1720958 -0.9627869 -0.1707957 0.2093948 -0.9627994 -0.1267473 0.2387789 -0.9627668 -1.12271e-4 -2.82026e-4 1 -1.12053e-4 -2.81893e-4 1 -1.11575e-4 -2.81881e-4 1 -1.10752e-4 -2.81842e-4 1 -1.11162e-4 -2.81688e-4 1 -1.12538e-4 -2.82529e-4 1 -1.10962e-4 -2.81556e-4 1 -1.11087e-4 -2.81679e-4 1 -1.11235e-4 -2.8163e-4 1 -1.11456e-4 -2.82223e-4 1 -1.11317e-4 -2.8187e-4 1 -1.11767e-4 -2.82225e-4 1 -1.11309e-4 -2.81705e-4 1 -1.11455e-4 -2.82083e-4 1 -1.11471e-4 -2.81795e-4 1 -1.11544e-4 -2.82714e-4 1 -1.11493e-4 -2.8177e-4 1 -1.11536e-4 -2.81446e-4 1 -1.1185e-4 -2.82119e-4 1 -1.11254e-4 -2.80181e-4 1 -1.11255e-4 -2.84468e-4 1 -1.10318e-4 -2.81981e-4 1 -1.11027e-4 -2.82066e-4 1 -1.1345e-4 -2.81934e-4 1 -1.11363e-4 -2.82039e-4 1 -1.09098e-4 -2.82565e-4 1 -1.08807e-4 -2.83863e-4 1 -1.14635e-4 -2.80238e-4 1 -1.10225e-4 -2.83053e-4 1 -1.14765e-4 -2.80041e-4 1 -0.07784718 0.2591688 -0.9626897 -0.02587807 0.2697913 -0.962571 1.118e-4 2.81652e-4 -1 1.10768e-4 2.81709e-4 -1 1.12394e-4 2.81768e-4 -1 1.11559e-4 2.81743e-4 -1 1.1225e-4 2.81747e-4 -1 1.1044e-4 2.81808e-4 -1 1.11211e-4 2.81683e-4 -1 1.12354e-4 2.81938e-4 -1 1.09873e-4 2.8192e-4 -1 1.12742e-4 2.81198e-4 -1 1.11614e-4 2.80149e-4 -1 1.10585e-4 2.81857e-4 -1 1.02349e-4 2.92993e-4 -1 8.74529e-5 3.06856e-4 -1 1.01366e-4 2.98966e-4 -1 1.11211e-4 2.81875e-4 -1 1.1229e-4 2.81822e-4 -1 1.1307e-4 2.81829e-4 -1 1.10439e-4 2.81814e-4 -1 1.10247e-4 2.79635e-4 -1 1.11435e-4 2.81732e-4 -1 1.12692e-4 2.82699e-4 -1 1.1313e-4 2.85554e-4 -1 1.12738e-4 2.85224e-4 -1 1.10441e-4 2.78365e-4 -1 1.11605e-4 2.79978e-4 -1 1.11975e-4 2.82464e-4 -1 1.12136e-4 2.7971e-4 -1 1.12226e-4 2.84227e-4 -1 1.1138e-4 2.8815e-4 -1 -0.09596234 0.9952971 0.01322847 -0.2882969 0.9574702 0.01165461 -0.469561 0.8828476 0.009632945 -0.632786 0.7742929 0.00724101 -0.7716959 0.6359753 0.004570662 -0.8809484 0.4732092 0.001724421 -0.9563405 0.2922525 -0.00118786 -0.9949729 0.1000625 -0.004054486 -0.9953618 -0.09596478 -0.006765425 -0.9574951 -0.2883024 -0.009216189 -0.8828331 -0.4695507 -0.0113126 -0.7742491 -0.632748 -0.0129742 -0.6359194 -0.7716261 -0.01413738 -0.4731584 -0.8808537 -0.01475709 -0.2922206 -0.9562363 -0.01480996 -0.1000546 -0.9948794 -0.0142939 0.09596419 -0.995297 -0.01322859 0.2882966 -0.9574703 -0.01165467 0.4695605 -0.8828479 -0.009632885 0.6327859 -0.7742931 -0.00724101 0.7716965 -0.6359747 -0.004570543 0.8809483 -0.4732095 -0.001724481 0.9563406 -0.2922523 0.00118786 0.9949728 -0.1000645 0.004054665 0.9953616 0.09596693 0.006765186 0.957495 0.288303 0.009216189 0.8828331 0.4695509 0.0113126 0.7742494 0.6327477 0.01297432 0.6359186 0.7716267 0.01413738 0.4731587 0.8808536 0.01475727 0.2922204 0.9562363 0.01481002 0.1000534 0.9948795 0.01429384 0.4695604 -0.8828479 -0.009632945 0.1311076 -0.2460317 -0.9603537</float_array>
          <technique_common>
            <accessor source="#Cylinder-mesh-normals-array" count="194" stride="3">
              <param name="X" type="float"/>
              <param name="Y" type="float"/>
              <param name="Z" type="float"/>
            </accessor>
          </technique_common>
        </source>
        <source id="Cylinder-mesh-map-0">
          <float_array id="Cylinder-mesh-map-0-array" count="1164">1 0.9264342 0.96875 1 0.9687501 0.9264342 0.9687501 0.9264342 0.9375 1 0.9375 0.9264342 0.9375 0.9264342 0.90625 1 0.9062501 0.9264342 0.9062501 0.9264342 0.8750001 1 0.8750001 0.9264342 0.8750001 0.9264342 0.84375 1 0.8437501 0.9264342 0.8437501 0.9264342 0.8125 1 0.8125 0.9264341 0.8125 0.9264341 0.78125 1 0.7812501 0.9264343 0.7812501 0.9264343 0.75 1 0.75 0.9264342 0.75 0.9264342 0.71875 1 0.71875 0.9264342 0.71875 0.9264342 0.6875 1 0.6875 0.9264342 0.6875 0.9264342 0.65625 1 0.65625 0.9264342 0.65625 0.9264342 0.625 1 0.625 0.9264342 0.625 0.9264342 0.59375 1 0.59375 0.9264342 0.578125 1 0.5625 0.9264342 0.578125 0.9264342 0.5625 1 0.53125 0.9264342 0.5625 0.9264342 0.53125 1 0.5000001 0.9264343 0.53125 0.9264342 0.5 1 0.46875 0.9264342 0.5000001 0.9264343 0.46875 1 0.4375 0.9264342 0.46875 0.9264342 0.4375 1 0.40625 0.9264342 0.4375 0.9264342 0.40625 1 0.375 0.9264342 0.40625 0.9264342 0.375 1 0.34375 0.926434 0.375 0.9264342 0.34375 1 0.3125 0.9264342 0.34375 0.926434 0.3125 1 0.28125 0.9264341 0.3125 0.9264342 0.28125 1 0.25 0.9264341 0.28125 0.9264341 0.25 1 0.21875 0.9264342 0.25 0.9264341 0.21875 1 0.1875 0.9264342 0.21875 0.9264342 0.1875 1 0.15625 0.9264342 0.1875 0.9264342 0.15625 1 0.125 0.9264342 0.15625 0.9264342 0.125 1 0.09375 0.9264342 0.125 0.9264342 0.09375 0.9264342 0.0625 1 0.0625 0.9264342 0.3625904 0.03935801 0.4197056 0.08029437 0.4495527 0.116663 0.0625 0.9264342 0.03125 1 0.03125 0.9264341 0.03125 0.9264341 0 1 0 0.9264342 0.75 0.00999999 0.7031784 0.01461154 0.8625904 0.03935801 0.03125 0.5 0 0.9264342 0 0.5 0.0625 0.5 0.03125 0.9264341 0.03125 0.5 0.09375 0.5 0.0625 0.9264342 0.0625 0.5 0.125 0.5 0.09375 0.9264342 0.09375 0.5 0.15625 0.5 0.125 0.9264342 0.125 0.5 0.1875 0.5 0.15625 0.9264342 0.15625 0.5 0.21875 0.5 0.1875 0.9264342 0.1875 0.5 0.25 0.5 0.21875 0.9264342 0.21875 0.5 0.28125 0.5 0.25 0.9264341 0.25 0.5 0.3125 0.5 0.28125 0.9264341 0.28125 0.5 0.34375 0.5 0.3125 0.9264342 0.3125 0.5 0.375 0.5 0.34375 0.926434 0.34375 0.5 0.40625 0.5 0.375 0.9264342 0.375 0.5 0.4375 0.5 0.40625 0.9264342 0.40625 0.5 0.46875 0.9264342 0.4375 0.5 0.46875 0.5 0.5000001 0.9264343 0.46875 0.5 0.5 0.5 0.53125 0.9264342 0.5 0.5 0.53125 0.5 0.5625 0.9264342 0.53125 0.5 0.5625 0.5 0.578125 0.9264342 0.5625 0.5 0.578125 0.5 0.625 0.9264342 0.59375 0.5 0.625 0.5 0.65625 0.9264342 0.625 0.5 0.65625 0.5 0.6875 0.9264342 0.65625 0.5 0.6875 0.5 0.71875 0.9264342 0.6875 0.5 0.71875 0.5 0.75 0.9264342 0.71875 0.5 0.75 0.5 0.7812501 0.9264343 0.75 0.5 0.78125 0.5 0.8125 0.9264341 0.78125 0.5 0.8125 0.5 0.8437501 0.9264342 0.8125 0.5 0.84375 0.5 0.8750001 0.9264342 0.84375 0.5 0.8750001 0.5 0.9062501 0.9264342 0.8750001 0.5 0.90625 0.5 0.9375 0.9264342 0.90625 0.5 0.9375 0.5 0.96875 0.5 0.9375 0.9264342 0.9375 0.5 1 0.5 0.9687501 0.9264342 0.96875 0.5 0.59375 0.9264342 0.578125 0.5 0.59375 0.5 0.59375 0.9264342 0.578125 1 0.578125 0.9264342 1 0.9264342 1 1 0.96875 1 0.9687501 0.9264342 0.96875 1 0.9375 1 0.9375 0.9264342 0.9375 1 0.90625 1 0.9062501 0.9264342 0.90625 1 0.8750001 1 0.8750001 0.9264342 0.8750001 1 0.84375 1 0.8437501 0.9264342 0.84375 1 0.8125 1 0.8125 0.9264341 0.8125 1 0.78125 1 0.7812501 0.9264343 0.78125 1 0.75 1 0.75 0.9264342 0.75 1 0.71875 1 0.71875 0.9264342 0.71875 1 0.6875 1 0.6875 0.9264342 0.6875 1 0.65625 1 0.65625 0.9264342 0.65625 1 0.625 1 0.625 0.9264342 0.625 1 0.59375 1 0.578125 1 0.5625 1 0.5625 0.9264342 0.5625 1 0.53125 1 0.53125 0.9264342 0.53125 1 0.5 1 0.5000001 0.9264343 0.5 1 0.46875 1 0.46875 0.9264342 0.46875 1 0.4375 1 0.4375 0.9264342 0.4375 1 0.40625 1 0.40625 0.9264342 0.40625 1 0.375 1 0.375 0.9264342 0.375 1 0.34375 1 0.34375 0.926434 0.34375 1 0.3125 1 0.3125 0.9264342 0.3125 1 0.28125 1 0.28125 0.9264341 0.28125 1 0.25 1 0.25 0.9264341 0.25 1 0.21875 1 0.21875 0.9264342 0.21875 1 0.1875 1 0.1875 0.9264342 0.1875 1 0.15625 1 0.15625 0.9264342 0.15625 1 0.125 1 0.125 0.9264342 0.125 1 0.09375 1 0.09375 0.9264342 0.09375 0.9264342 0.09375 1 0.0625 1 0.341844 0.4717311 0.2968217 0.4853885 0.3625904 0.03935801 0.2968217 0.4853885 0.25 0.49 0.3625904 0.03935801 0.25 0.49 0.2031783 0.4853885 0.3625904 0.03935801 0.2031783 0.4853885 0.1581559 0.4717311 0.3625904 0.03935801 0.1581559 0.4717311 0.116663 0.4495527 0.3625904 0.03935801 0.116663 0.4495527 0.08029437 0.4197056 0.3625904 0.03935801 0.08029437 0.4197056 0.05044728 0.3833369 0.3625904 0.03935801 0.05044728 0.3833369 0.02826887 0.341844 0.3625904 0.03935801 0.02826887 0.341844 0.01461154 0.2968217 0.3625904 0.03935801 0.01461154 0.2968217 0.00999999 0.25 0.3625904 0.03935801 0.00999999 0.25 0.01461154 0.2031783 0.3625904 0.03935801 0.01461154 0.2031783 0.02826887 0.1581559 0.3625904 0.03935801 0.02826887 0.1581559 0.05044728 0.116663 0.3625904 0.03935801 0.05044728 0.116663 0.08029437 0.08029437 0.3625904 0.03935801 0.08029437 0.08029437 0.116663 0.05044728 0.3625904 0.03935801 0.116663 0.05044728 0.1581559 0.02826887 0.3625904 0.03935801 0.1581559 0.02826887 0.2031783 0.01461154 0.3625904 0.03935801 0.2031783 0.01461154 0.25 0.00999999 0.3625904 0.03935801 0.25 0.00999999 0.2968217 0.01461154 0.3625904 0.03935801 0.2968217 0.01461154 0.341844 0.02826887 0.3625904 0.03935801 0.3625904 0.03935801 0.3833369 0.05044728 0.4197056 0.08029437 0.3833369 0.4495527 0.341844 0.4717311 0.3625904 0.03935801 0.4495527 0.3833369 0.4197056 0.4197056 0.3625904 0.03935801 0.4197056 0.4197056 0.3833369 0.4495527 0.3625904 0.03935801 0.4853885 0.2968217 0.4717311 0.341844 0.3625904 0.03935801 0.4717311 0.341844 0.4495527 0.3833369 0.3625904 0.03935801 0.4853885 0.2031783 0.49 0.25 0.3625904 0.03935801 0.49 0.25 0.4853885 0.2968217 0.3625904 0.03935801 0.4495527 0.116663 0.4717311 0.1581559 0.3625904 0.03935801 0.4717311 0.1581559 0.4853885 0.2031783 0.3625904 0.03935801 0.0625 0.9264342 0.0625 1 0.03125 1 0.03125 0.9264341 0.03125 1 0 1 0.7031784 0.4853885 0.75 0.49 0.8625904 0.03935801 0.75 0.49 0.7968217 0.4853885 0.8625904 0.03935801 0.7968217 0.4853885 0.841844 0.4717311 0.8625904 0.03935801 0.841844 0.4717311 0.8833369 0.4495527 0.8625904 0.03935801 0.8833369 0.4495527 0.9197056 0.4197056 0.8625904 0.03935801 0.9197056 0.4197056 0.9495527 0.3833369 0.8625904 0.03935801 0.9495527 0.3833369 0.9717311 0.341844 0.8625904 0.03935801 0.9717311 0.341844 0.9853885 0.2968217 0.8625904 0.03935801 0.9853885 0.2968217 0.99 0.25 0.8625904 0.03935801 0.99 0.25 0.9853885 0.2031783 0.8625904 0.03935801 0.9853885 0.2031783 0.9717311 0.1581559 0.8625904 0.03935801 0.9717311 0.1581559 0.9495527 0.116663 0.8625904 0.03935801 0.9495527 0.116663 0.9197056 0.08029437 0.8625904 0.03935801 0.9197056 0.08029437 0.8833369 0.05044728 0.8625904 0.03935801 0.8625904 0.03935801 0.841844 0.02826887 0.7968217 0.01461154 0.6166632 0.4495527 0.658156 0.4717311 0.8625904 0.03935801 0.658156 0.4717311 0.7031784 0.4853885 0.8625904 0.03935801 0.5504473 0.3833369 0.5802944 0.4197056 0.8625904 0.03935801 0.5802944 0.4197056 0.6166632 0.4495527 0.8625904 0.03935801 0.5146116 0.2968217 0.5282689 0.341844 0.8625904 0.03935801 0.5282689 0.341844 0.5504473 0.3833369 0.8625904 0.03935801 0.5146116 0.2031783 0.51 0.25 0.8625904 0.03935801 0.51 0.25 0.5146116 0.2968217 0.8625904 0.03935801 0.5504473 0.116663 0.5282689 0.1581559 0.8625904 0.03935801 0.5282689 0.1581559 0.5146116 0.2031783 0.8625904 0.03935801 0.6166632 0.05044728 0.5802944 0.08029437 0.8625904 0.03935801 0.5802944 0.08029437 0.5504473 0.116663 0.8625904 0.03935801 0.7031784 0.01461154 0.658156 0.02826887 0.8625904 0.03935801 0.658156 0.02826887 0.6166632 0.05044728 0.8625904 0.03935801 0.7968217 0.01461154 0.75 0.00999999 0.8625904 0.03935801 0.03125 0.5 0.03125 0.9264341 0 0.9264342 0.0625 0.5 0.0625 0.9264342 0.03125 0.9264341 0.09375 0.5 0.09375 0.9264342 0.0625 0.9264342 0.125 0.5 0.125 0.9264342 0.09375 0.9264342 0.15625 0.5 0.15625 0.9264342 0.125 0.9264342 0.1875 0.5 0.1875 0.9264342 0.15625 0.9264342 0.21875 0.5 0.21875 0.9264342 0.1875 0.9264342 0.25 0.5 0.25 0.9264341 0.21875 0.9264342 0.28125 0.5 0.28125 0.9264341 0.25 0.9264341 0.3125 0.5 0.3125 0.9264342 0.28125 0.9264341 0.34375 0.5 0.34375 0.926434 0.3125 0.9264342 0.375 0.5 0.375 0.9264342 0.34375 0.926434 0.40625 0.5 0.40625 0.9264342 0.375 0.9264342 0.4375 0.5 0.4375 0.9264342 0.40625 0.9264342 0.46875 0.9264342 0.4375 0.9264342 0.4375 0.5 0.5000001 0.9264343 0.46875 0.9264342 0.46875 0.5 0.53125 0.9264342 0.5000001 0.9264343 0.5 0.5 0.5625 0.9264342 0.53125 0.9264342 0.53125 0.5 0.578125 0.9264342 0.5625 0.9264342 0.5625 0.5 0.625 0.9264342 0.59375 0.9264342 0.59375 0.5 0.65625 0.9264342 0.625 0.9264342 0.625 0.5 0.6875 0.9264342 0.65625 0.9264342 0.65625 0.5 0.71875 0.9264342 0.6875 0.9264342 0.6875 0.5 0.75 0.9264342 0.71875 0.9264342 0.71875 0.5 0.7812501 0.9264343 0.75 0.9264342 0.75 0.5 0.8125 0.9264341 0.7812501 0.9264343 0.78125 0.5 0.8437501 0.9264342 0.8125 0.9264341 0.8125 0.5 0.8750001 0.9264342 0.8437501 0.9264342 0.84375 0.5 0.9062501 0.9264342 0.8750001 0.9264342 0.8750001 0.5 0.9375 0.9264342 0.9062501 0.9264342 0.90625 0.5 0.96875 0.5 0.9687501 0.9264342 0.9375 0.9264342 1 0.5 1 0.9264342 0.9687501 0.9264342 0.59375 0.9264342 0.578125 0.9264342 0.578125 0.5 0.59375 0.9264342 0.59375 1 0.578125 1</float_array>
          <technique_common>
            <accessor source="#Cylinder-mesh-map-0-array" count="582" stride="2">
              <param name="S" type="float"/>
              <param name="T" type="float"/>
            </accessor>
          </technique_common>
        </source>
        <vertices id="Cylinder-mesh-vertices">
          <input semantic="POSITION" source="#Cylinder-mesh-positions"/>
        </vertices>
        <triangles material="Material_002-material" count="194">
          <input semantic="VERTEX" source="#Cylinder-mesh-vertices" offset="0"/>
          <input semantic="NORMAL" source="#Cylinder-mesh-normals" offset="1"/>
          <input semantic="TEXCOORD" source="#Cylinder-mesh-map-0" offset="2" set="0"/>
          <p>64 0 0 3 0 1 65 0 2 65 1 3 5 1 4 66 1 5 66 2 6 7 2 7 67 2 8 67 3 9 9 3 10 68 3 11 68 4 12 11 4 13 69 4 14 69 5 15 13 5 16 70 5 17 70 6 18 15 6 19 71 6 20 71 7 21 17 7 22 72 7 23 72 8 24 19 8 25 73 8 26 73 9 27 21 9 28 74 9 29 74 10 30 23 10 31 75 10 32 75 11 33 25 11 34 76 11 35 76 12 36 27 12 37 77 12 38 97 13 39 78 13 40 98 13 41 29 14 42 79 14 43 78 14 44 31 15 45 80 15 46 79 15 47 33 16 48 81 16 49 80 16 50 35 17 51 82 17 52 81 17 53 37 18 54 83 18 55 82 18 56 39 19 57 84 19 58 83 19 59 41 20 60 85 20 61 84 20 62 43 21 63 86 21 64 85 21 65 45 22 66 87 22 67 86 22 68 47 23 69 88 23 70 87 23 71 49 24 72 89 24 73 88 24 74 51 25 75 90 25 76 89 25 77 53 26 78 91 26 79 90 26 80 55 27 81 92 27 82 91 27 83 57 28 84 93 28 85 92 28 86 93 29 87 61 29 88 94 29 89 97 30 90 25 30 91 23 30 92 94 31 93 63 31 94 95 31 95 95 32 96 1 32 97 64 32 98 32 33 99 34 33 100 96 33 101 62 34 102 64 34 103 0 34 104 60 35 105 95 35 106 62 35 107 58 36 108 94 36 109 60 36 110 56 37 111 93 37 112 58 37 113 54 38 114 92 38 115 56 38 116 52 39 117 91 39 118 54 39 119 50 40 120 90 40 121 52 40 122 48 41 123 89 41 124 50 41 125 46 42 126 88 42 127 48 42 128 44 43 129 87 43 130 46 43 131 42 44 132 86 44 133 44 44 134 40 45 135 85 45 136 42 45 137 38 46 138 84 46 139 40 46 140 36 47 141 83 47 142 38 47 143 81 48 144 36 48 145 34 48 146 80 49 147 34 49 148 32 49 149 79 50 150 32 50 151 30 50 152 78 51 153 30 51 154 28 51 155 98 52 156 28 52 157 96 52 158 76 53 159 26 53 160 24 53 161 75 54 162 24 54 163 22 54 164 74 55 165 22 55 166 20 55 167 73 56 168 20 56 169 18 56 170 72 57 171 18 57 172 16 57 173 71 58 174 16 58 175 14 58 176 70 59 177 14 59 178 12 59 179 69 60 180 12 60 181 10 60 182 68 61 183 10 61 184 8 61 185 67 62 186 8 62 187 6 62 188 66 63 189 6 63 190 4 63 191 2 64 192 66 64 193 4 64 194 0 65 195 65 65 196 2 65 197 77 66 198 96 66 199 26 66 200 77 67 201 97 67 202 98 67 203 64 68 204 1 68 205 3 68 206 65 69 207 3 69 208 5 69 209 66 70 210 5 70 211 7 70 212 67 71 213 7 71 214 9 71 215 68 72 216 9 72 217 11 72 218 69 73 219 11 73 220 13 73 221 70 74 222 13 74 223 15 74 224 71 75 225 15 75 226 17 75 227 72 76 228 17 76 229 19 76 230 73 77 231 19 77 232 21 77 233 74 78 234 21 78 235 23 78 236 75 79 237 23 79 238 25 79 239 76 80 240 25 80 241 27 80 242 97 81 243 29 81 244 78 81 245 29 82 246 31 82 247 79 82 248 31 83 249 33 83 250 80 83 251 33 84 252 35 84 253 81 84 254 35 85 255 37 85 256 82 85 257 37 86 258 39 86 259 83 86 260 39 87 261 41 87 262 84 87 263 41 88 264 43 88 265 85 88 266 43 89 267 45 89 268 86 89 269 45 90 270 47 90 271 87 90 272 47 91 273 49 91 274 88 91 275 49 92 276 51 92 277 89 92 278 51 93 279 53 93 280 90 93 281 53 94 282 55 94 283 91 94 284 55 95 285 57 95 286 92 95 287 57 96 288 59 96 289 93 96 290 93 97 291 59 97 292 61 97 293 5 98 294 3 98 295 97 98 296 3 99 297 1 99 298 97 99 299 1 100 300 63 100 301 97 100 302 63 101 303 61 101 304 97 101 305 61 102 306 59 102 307 97 102 308 59 103 309 57 103 310 97 103 311 57 104 312 55 104 313 97 104 314 55 105 315 53 105 316 97 105 317 53 106 318 51 106 319 97 106 320 51 107 321 49 107 322 97 107 323 49 108 324 47 108 325 97 108 326 47 109 327 45 109 328 97 109 329 45 110 330 43 110 331 97 110 332 43 111 333 41 111 334 97 111 335 41 112 336 39 112 337 97 112 338 39 113 339 37 113 340 97 113 341 37 114 342 35 114 343 97 114 344 35 115 345 33 115 346 97 115 347 33 116 348 31 116 349 97 116 350 31 117 351 29 117 352 97 117 353 97 118 354 27 118 355 25 118 356 7 119 357 5 119 358 97 119 359 11 120 360 9 120 361 97 120 362 9 121 363 7 121 364 97 121 365 15 122 366 13 122 367 97 122 368 13 123 369 11 123 370 97 123 371 19 124 372 17 124 373 97 124 374 17 125 375 15 125 376 97 125 377 23 126 378 21 126 379 97 126 380 21 127 381 19 127 382 97 127 383 94 128 384 61 128 385 63 128 386 95 129 387 63 129 388 1 129 389 62 130 390 0 130 391 96 130 392 0 131 393 2 131 394 96 131 395 2 132 396 4 132 397 96 132 398 4 133 399 6 133 400 96 133 401 6 134 402 8 134 403 96 134 404 8 135 405 10 135 406 96 135 407 10 136 408 12 136 409 96 136 410 12 137 411 14 137 412 96 137 413 14 138 414 16 138 415 96 138 416 16 139 417 18 139 418 96 139 419 18 140 420 20 140 421 96 140 422 20 141 423 22 141 424 96 141 425 22 142 426 24 142 427 96 142 428 24 143 429 26 143 430 96 143 431 96 144 432 28 144 433 30 144 434 58 145 435 60 145 436 96 145 437 60 146 438 62 146 439 96 146 440 54 147 441 56 147 442 96 147 443 56 148 444 58 148 445 96 148 446 50 149 447 52 149 448 96 149 449 52 150 450 54 150 451 96 150 452 46 151 453 48 151 454 96 151 455 48 152 456 50 152 457 96 152 458 42 153 459 44 153 460 96 153 461 44 154 462 46 154 463 96 154 464 38 155 465 40 155 466 96 155 467 40 156 468 42 156 469 96 156 470 34 157 471 36 157 472 96 157 473 36 158 474 38 158 475 96 158 476 30 159 477 32 159 478 96 159 479 62 160 480 95 160 481 64 160 482 60 161 483 94 161 484 95 161 485 58 162 486 93 162 487 94 162 488 56 163 489 92 163 490 93 163 491 54 164 492 91 164 493 92 164 494 52 165 495 90 165 496 91 165 497 50 166 498 89 166 499 90 166 500 48 167 501 88 167 502 89 167 503 46 168 504 87 168 505 88 168 506 44 169 507 86 169 508 87 169 509 42 170 510 85 170 511 86 170 512 40 171 513 84 171 514 85 171 515 38 172 516 83 172 517 84 172 518 36 173 519 82 173 520 83 173 521 81 174 522 82 174 523 36 174 524 80 175 525 81 175 526 34 175 527 79 176 528 80 176 529 32 176 530 78 177 531 79 177 532 30 177 533 98 178 534 78 178 535 28 178 536 76 179 537 77 179 538 26 179 539 75 180 540 76 180 541 24 180 542 74 181 543 75 181 544 22 181 545 73 182 546 74 182 547 20 182 548 72 183 549 73 183 550 18 183 551 71 184 552 72 184 553 16 184 554 70 185 555 71 185 556 14 185 557 69 186 558 70 186 559 12 186 560 68 187 561 69 187 562 10 187 563 67 188 564 68 188 565 8 188 566 66 189 567 67 189 568 6 189 569 2 190 570 65 190 571 66 190 572 0 191 573 64 191 574 65 191 575 77 192 576 98 192 577 96 192 578 77 193 579 27 193 580 97 193 581</p>
        </triangles>
      </mesh>
    </geometry>
    <geometry id="Cylinder_001-mesh" name="Cylinder.001">
      <mesh>
        <source id="Cylinder_001-mesh-positions">
          <float_array id="Cylinder_001-mesh-positions-array" count="192">0 1 -1 0 1 1 0.1950903 0.9807853 -1 0.1950903 0.9807853 1 0.3826835 0.9238795 -1 0.3826835 0.9238795 1 0.5555703 0.8314696 -1 0.5555703 0.8314696 1 0.7071068 0.7071068 -1 0.7071068 0.7071068 1 0.8314696 0.5555703 -1 0.8314696 0.5555703 1 0.9238795 0.3826835 -1 0.9238795 0.3826835 1 0.9807853 0.1950903 -1 0.9807853 0.1950903 1 1 0 -1 1 0 1 0.9807853 -0.1950903 -1 0.9807853 -0.1950903 1 0.9238795 -0.3826835 -1 0.9238795 -0.3826835 1 0.8314696 -0.5555703 -1 0.8314696 -0.5555703 1 0.7071068 -0.7071068 -1 0.7071068 -0.7071068 1 0.5555703 -0.8314696 -1 0.5555703 -0.8314696 1 0.3826835 -0.9238795 -1 0.3826835 -0.9238795 1 0.1950903 -0.9807853 -1 0.1950903 -0.9807853 1 0 -1 -1 0 -1 1 -0.1950903 -0.9807853 -1 -0.1950903 -0.9807853 1 -0.3826835 -0.9238795 -1 -0.3826835 -0.9238795 1 -0.5555703 -0.8314696 -1 -0.5555703 -0.8314696 1 -0.7071068 -0.7071068 -1 -0.7071068 -0.7071068 1 -0.8314696 -0.5555703 -1 -0.8314696 -0.5555703 1 -0.9238795 -0.3826835 -1 -0.9238795 -0.3826835 1 -0.9807853 -0.1950903 -1 -0.9807853 -0.1950903 1 -1 0 -1 -1 0 1 -0.9807853 0.1950903 -1 -0.9807853 0.1950903 1 -0.9238795 0.3826835 -1 -0.9238795 0.3826835 1 -0.8314696 0.5555703 -1 -0.8314696 0.5555703 1 -0.7071068 0.7071068 -1 -0.7071068 0.7071068 1 -0.5555703 0.8314696 -1 -0.5555703 0.8314696 1 -0.3826835 0.9238795 -1 -0.3826835 0.9238795 1 -0.1950903 0.9807853 -1 -0.1950903 0.9807853 1</float_array>
          <technique_common>
            <accessor source="#Cylinder_001-mesh-positions-array" count="64" stride="3">
              <param name="X" type="float"/>
              <param name="Y" type="float"/>
              <param name="Z" type="float"/>
            </accessor>
          </technique_common>
        </source>
        <source id="Cylinder_001-mesh-normals">
          <float_array id="Cylinder_001-mesh-normals-array" count="192">0.09801697 0.9951848 0 0.2902848 0.9569403 0 0.4713967 0.8819213 0 0.634393 0.7730107 0 0.7730108 0.634393 0 0.8819212 0.471397 0 0.9569405 0.2902846 0 0.9951848 0.09801727 0 0.9951848 -0.09801667 0 0.9569403 -0.2902851 0 0.8819215 -0.4713965 0 0.7730105 -0.6343934 0 0.6343933 -0.7730104 0 0.4713967 -0.8819213 0 0.2902848 -0.9569404 0 0.09801697 -0.9951848 0 -0.09801697 -0.9951848 0 -0.2902848 -0.9569403 0 -0.4713967 -0.8819213 0 -0.634393 -0.7730107 0 -0.7730108 -0.634393 0 -0.8819212 -0.471397 0 -0.9569405 -0.2902846 0 -0.9951848 -0.09801727 0 -0.9951848 0.09801667 0 -0.9569403 0.2902851 0 -0.8819215 0.4713965 0 -0.7730105 0.6343934 0 -0.6343933 0.7730104 0 -0.4713967 0.8819213 0 0 0 1 -0.2902848 0.9569404 0 -0.09801697 0.9951848 0 0 0 -1 0.2902848 0.9569404 0 0.6343933 0.7730104 0 0.7730105 0.6343934 0 0.8819215 0.4713965 0 0.9569403 0.2902851 0 0.9951848 0.09801667 0 0.9951848 -0.09801727 0 0.9569405 -0.2902846 0 0.8819212 -0.471397 0 0.7730108 -0.634393 0 0.634393 -0.7730107 0 0.2902848 -0.9569403 0 -0.2902848 -0.9569404 0 -0.6343933 -0.7730104 0 -0.7730105 -0.6343934 0 -0.8819215 -0.4713965 0 -0.9569403 -0.2902851 0 -0.9951848 -0.09801667 0 -0.9951848 0.09801727 0 -0.9569405 0.2902846 0 -0.8819212 0.471397 0 -0.7730108 0.634393 0 -0.634393 0.7730107 0 -0.2902848 0.9569403 0 3.97512e-6 0 -1 3.97512e-6 0 -1 -3.97512e-6 0 -1 -3.97512e-6 0 -1 3.88857e-7 0 -1 -3.88857e-7 0 -1</float_array>
          <technique_common>
            <accessor source="#Cylinder_001-mesh-normals-array" count="64" stride="3">
              <param name="X" type="float"/>
              <param name="Y" type="float"/>
              <param name="Z" type="float"/>
            </accessor>
          </technique_common>
        </source>
        <source id="Cylinder_001-mesh-map-0">
          <float_array id="Cylinder_001-mesh-map-0-array" count="744">1 1 0.96875 0.5 1 0.5 0.96875 1 0.9375 0.5 0.96875 0.5 0.9375 1 0.90625 0.5 0.9375 0.5 0.90625 1 0.8750001 0.5 0.90625 0.5 0.8750001 1 0.84375 0.5 0.8750001 0.5 0.84375 1 0.8125 0.5 0.84375 0.5 0.8125 1 0.78125 0.5 0.8125 0.5 0.78125 1 0.75 0.5 0.78125 0.5 0.75 1 0.71875 0.5 0.75 0.5 0.71875 1 0.6875 0.5 0.71875 0.5 0.6875 1 0.65625 0.5 0.6875 0.5 0.65625 1 0.625 0.5 0.65625 0.5 0.625 1 0.59375 0.5 0.625 0.5 0.59375 1 0.5625 0.5 0.59375 0.5 0.5625 1 0.53125 0.5 0.5625 0.5 0.53125 1 0.5 0.5 0.53125 0.5 0.5 1 0.46875 0.5 0.5 0.5 0.46875 1 0.4375 0.5 0.46875 0.5 0.4375 1 0.40625 0.5 0.4375 0.5 0.40625 1 0.375 0.5 0.40625 0.5 0.375 1 0.34375 0.5 0.375 0.5 0.34375 1 0.3125 0.5 0.34375 0.5 0.3125 1 0.28125 0.5 0.3125 0.5 0.28125 1 0.25 0.5 0.28125 0.5 0.25 1 0.21875 0.5 0.25 0.5 0.21875 1 0.1875 0.5 0.21875 0.5 0.1875 1 0.15625 0.5 0.1875 0.5 0.15625 1 0.125 0.5 0.15625 0.5 0.125 1 0.09375 0.5 0.125 0.5 0.09375 1 0.0625 0.5 0.09375 0.5 0.1581559 0.02826887 0.4717311 0.1581559 0.341844 0.4717311 0.0625 1 0.03125 0.5 0.0625 0.5 0.03125 1 0 0.5 0.03125 0.5 0.7968217 0.01461154 0.5146116 0.2031783 0.7031784 0.4853885 1 1 0.96875 1 0.96875 0.5 0.96875 1 0.9375 1 0.9375 0.5 0.9375 1 0.90625 1 0.90625 0.5 0.90625 1 0.8750001 1 0.8750001 0.5 0.8750001 1 0.84375 1 0.84375 0.5 0.84375 1 0.8125 1 0.8125 0.5 0.8125 1 0.78125 1 0.78125 0.5 0.78125 1 0.75 1 0.75 0.5 0.75 1 0.71875 1 0.71875 0.5 0.71875 1 0.6875 1 0.6875 0.5 0.6875 1 0.65625 1 0.65625 0.5 0.65625 1 0.625 1 0.625 0.5 0.625 1 0.59375 1 0.59375 0.5 0.59375 1 0.5625 1 0.5625 0.5 0.5625 1 0.53125 1 0.53125 0.5 0.53125 1 0.5 1 0.5 0.5 0.5 1 0.46875 1 0.46875 0.5 0.46875 1 0.4375 1 0.4375 0.5 0.4375 1 0.40625 1 0.40625 0.5 0.40625 1 0.375 1 0.375 0.5 0.375 1 0.34375 1 0.34375 0.5 0.34375 1 0.3125 1 0.3125 0.5 0.3125 1 0.28125 1 0.28125 0.5 0.28125 1 0.25 1 0.25 0.5 0.25 1 0.21875 1 0.21875 0.5 0.21875 1 0.1875 1 0.1875 0.5 0.1875 1 0.15625 1 0.15625 0.5 0.15625 1 0.125 1 0.125 0.5 0.125 1 0.09375 1 0.09375 0.5 0.09375 1 0.0625 1 0.0625 0.5 0.341844 0.4717311 0.2968217 0.4853885 0.25 0.49 0.25 0.49 0.2031783 0.4853885 0.341844 0.4717311 0.2031783 0.4853885 0.1581559 0.4717311 0.341844 0.4717311 0.1581559 0.4717311 0.116663 0.4495527 0.08029437 0.4197056 0.08029437 0.4197056 0.05044728 0.3833369 0.02826887 0.341844 0.02826887 0.341844 0.01461154 0.2968217 0.00999999 0.25 0.00999999 0.25 0.01461154 0.2031783 0.02826887 0.341844 0.01461154 0.2031783 0.02826887 0.1581559 0.02826887 0.341844 0.02826887 0.1581559 0.05044728 0.116663 0.08029437 0.08029437 0.08029437 0.08029437 0.116663 0.05044728 0.1581559 0.02826887 0.1581559 0.02826887 0.2031783 0.01461154 0.341844 0.02826887 0.2031783 0.01461154 0.25 0.00999999 0.341844 0.02826887 0.25 0.00999999 0.2968217 0.01461154 0.341844 0.02826887 0.341844 0.02826887 0.3833369 0.05044728 0.4197056 0.08029437 0.4197056 0.08029437 0.4495527 0.116663 0.4717311 0.1581559 0.4717311 0.1581559 0.4853885 0.2031783 0.4717311 0.341844 0.4853885 0.2031783 0.49 0.25 0.4717311 0.341844 0.49 0.25 0.4853885 0.2968217 0.4717311 0.341844 0.4717311 0.341844 0.4495527 0.3833369 0.4197056 0.4197056 0.4197056 0.4197056 0.3833369 0.4495527 0.341844 0.4717311 0.1581559 0.4717311 0.08029437 0.4197056 0.341844 0.4717311 0.08029437 0.4197056 0.02826887 0.341844 0.341844 0.4717311 0.02826887 0.1581559 0.08029437 0.08029437 0.02826887 0.341844 0.08029437 0.08029437 0.1581559 0.02826887 0.02826887 0.341844 0.341844 0.02826887 0.4197056 0.08029437 0.1581559 0.02826887 0.4197056 0.08029437 0.4717311 0.1581559 0.1581559 0.02826887 0.4717311 0.341844 0.4197056 0.4197056 0.4717311 0.1581559 0.4197056 0.4197056 0.341844 0.4717311 0.4717311 0.1581559 0.341844 0.4717311 0.02826887 0.341844 0.1581559 0.02826887 0.0625 1 0.03125 1 0.03125 0.5 0.03125 1 0 1 0 0.5 0.7031784 0.4853885 0.75 0.49 0.7968217 0.4853885 0.7968217 0.4853885 0.841844 0.4717311 0.8833369 0.4495527 0.8833369 0.4495527 0.9197056 0.4197056 0.9495527 0.3833369 0.9495527 0.3833369 0.9717311 0.341844 0.9853885 0.2968217 0.9853885 0.2968217 0.99 0.25 0.9853885 0.2031783 0.9853885 0.2031783 0.9717311 0.1581559 0.9495527 0.116663 0.9495527 0.116663 0.9197056 0.08029437 0.8833369 0.05044728 0.8833369 0.05044728 0.841844 0.02826887 0.7968217 0.01461154 0.7968217 0.01461154 0.75 0.00999999 0.7031784 0.01461154 0.7031784 0.01461154 0.658156 0.02826887 0.6166632 0.05044728 0.6166632 0.05044728 0.5802944 0.08029437 0.5504473 0.116663 0.5504473 0.116663 0.5282689 0.1581559 0.5146116 0.2031783 0.5146116 0.2031783 0.51 0.25 0.5146116 0.2968217 0.5146116 0.2968217 0.5282689 0.341844 0.5504473 0.3833369 0.5504473 0.3833369 0.5802944 0.4197056 0.6166632 0.4495527 0.6166632 0.4495527 0.658156 0.4717311 0.7031784 0.4853885 0.7031784 0.4853885 0.7968217 0.4853885 0.9853885 0.2968217 0.7968217 0.4853885 0.8833369 0.4495527 0.9853885 0.2968217 0.8833369 0.4495527 0.9495527 0.3833369 0.9853885 0.2968217 0.9853885 0.2968217 0.9853885 0.2031783 0.7968217 0.01461154 0.9853885 0.2031783 0.9495527 0.116663 0.7968217 0.01461154 0.9495527 0.116663 0.8833369 0.05044728 0.7968217 0.01461154 0.7968217 0.01461154 0.7031784 0.01461154 0.5146116 0.2031783 0.7031784 0.01461154 0.6166632 0.05044728 0.5146116 0.2031783 0.6166632 0.05044728 0.5504473 0.116663 0.5146116 0.2031783 0.5146116 0.2031783 0.5146116 0.2968217 0.7031784 0.4853885 0.5146116 0.2968217 0.5504473 0.3833369 0.7031784 0.4853885 0.5504473 0.3833369 0.6166632 0.4495527 0.7031784 0.4853885 0.7031784 0.4853885 0.9853885 0.2968217 0.7968217 0.01461154</float_array>
          <technique_common>
            <accessor source="#Cylinder_001-mesh-map-0-array" count="372" stride="2">
              <param name="S" type="float"/>
              <param name="T" type="float"/>
            </accessor>
          </technique_common>
        </source>
        <vertices id="Cylinder_001-mesh-vertices">
          <input semantic="POSITION" source="#Cylinder_001-mesh-positions"/>
        </vertices>
        <triangles material="Material_001-material" count="124">
          <input semantic="VERTEX" source="#Cylinder_001-mesh-vertices" offset="0"/>
          <input semantic="NORMAL" source="#Cylinder_001-mesh-normals" offset="1"/>
          <input semantic="TEXCOORD" source="#Cylinder_001-mesh-map-0" offset="2" set="0"/>
          <p>1 0 0 2 0 1 0 0 2 3 1 3 4 1 4 2 1 5 5 2 6 6 2 7 4 2 8 7 3 9 8 3 10 6 3 11 9 4 12 10 4 13 8 4 14 11 5 15 12 5 16 10 5 17 13 6 18 14 6 19 12 6 20 15 7 21 16 7 22 14 7 23 17 8 24 18 8 25 16 8 26 19 9 27 20 9 28 18 9 29 21 10 30 22 10 31 20 10 32 23 11 33 24 11 34 22 11 35 25 12 36 26 12 37 24 12 38 27 13 39 28 13 40 26 13 41 29 14 42 30 14 43 28 14 44 31 15 45 32 15 46 30 15 47 33 16 48 34 16 49 32 16 50 35 17 51 36 17 52 34 17 53 37 18 54 38 18 55 36 18 56 39 19 57 40 19 58 38 19 59 41 20 60 42 20 61 40 20 62 43 21 63 44 21 64 42 21 65 45 22 66 46 22 67 44 22 68 47 23 69 48 23 70 46 23 71 49 24 72 50 24 73 48 24 74 51 25 75 52 25 76 50 25 77 53 26 78 54 26 79 52 26 80 55 27 81 56 27 82 54 27 83 57 28 84 58 28 85 56 28 86 59 29 87 60 29 88 58 29 89 37 30 90 21 30 91 5 30 92 61 31 93 62 31 94 60 31 95 63 32 96 0 32 97 62 32 98 30 33 99 46 33 100 62 33 101 1 0 102 3 0 103 2 0 104 3 34 105 5 34 106 4 34 107 5 2 108 7 2 109 6 2 110 7 35 111 9 35 112 8 35 113 9 36 114 11 36 115 10 36 116 11 37 117 13 37 118 12 37 119 13 38 120 15 38 121 14 38 122 15 39 123 17 39 124 16 39 125 17 40 126 19 40 127 18 40 128 19 41 129 21 41 130 20 41 131 21 42 132 23 42 133 22 42 134 23 43 135 25 43 136 24 43 137 25 44 138 27 44 139 26 44 140 27 13 141 29 13 142 28 13 143 29 45 144 31 45 145 30 45 146 31 15 147 33 15 148 32 15 149 33 16 150 35 16 151 34 16 152 35 46 153 37 46 154 36 46 155 37 18 156 39 18 157 38 18 158 39 47 159 41 47 160 40 47 161 41 48 162 43 48 163 42 48 164 43 49 165 45 49 166 44 49 167 45 50 168 47 50 169 46 50 170 47 51 171 49 51 172 48 51 173 49 52 174 51 52 175 50 52 176 51 53 177 53 53 178 52 53 179 53 54 180 55 54 181 54 54 182 55 55 183 57 55 184 56 55 185 57 56 186 59 56 187 58 56 188 59 29 189 61 29 190 60 29 191 5 30 192 3 30 193 1 30 194 1 30 195 63 30 196 5 30 197 63 30 198 61 30 199 5 30 200 61 30 201 59 30 202 57 30 203 57 30 204 55 30 205 53 30 206 53 30 207 51 30 208 49 30 209 49 30 210 47 30 211 53 30 212 47 30 213 45 30 214 53 30 215 45 30 216 43 30 217 41 30 218 41 30 219 39 30 220 37 30 221 37 30 222 35 30 223 29 30 224 35 30 225 33 30 226 29 30 227 33 30 228 31 30 229 29 30 230 29 30 231 27 30 232 25 30 233 25 30 234 23 30 235 21 30 236 21 30 237 19 30 238 13 30 239 19 30 240 17 30 241 13 30 242 17 30 243 15 30 244 13 30 245 13 30 246 11 30 247 9 30 248 9 30 249 7 30 250 5 30 251 61 30 252 57 30 253 5 30 254 57 30 255 53 30 256 5 30 257 45 30 258 41 30 259 53 30 260 41 30 261 37 30 262 53 30 263 29 30 264 25 30 265 37 30 266 25 30 267 21 30 268 37 30 269 13 30 270 9 30 271 21 30 272 9 30 273 5 30 274 21 30 275 5 30 276 53 30 277 37 30 278 61 57 279 63 57 280 62 57 281 63 32 282 1 32 283 0 32 284 62 33 285 0 33 286 2 33 287 2 33 288 4 33 289 6 33 290 6 33 291 8 33 292 10 33 293 10 58 294 12 58 295 14 58 296 14 33 297 16 33 298 18 33 299 18 59 300 20 59 301 22 59 302 22 33 303 24 33 304 26 33 305 26 33 306 28 33 307 30 33 308 30 33 309 32 33 310 34 33 311 34 33 312 36 33 313 38 33 314 38 33 315 40 33 316 42 33 317 42 60 318 44 60 319 46 60 320 46 33 321 48 33 322 50 33 323 50 61 324 52 61 325 54 61 326 54 33 327 56 33 328 58 33 329 58 33 330 60 33 331 62 33 332 62 33 333 2 33 334 14 33 335 2 33 336 6 33 337 14 33 338 6 33 339 10 33 340 14 33 341 14 62 342 18 62 343 30 62 344 18 33 345 22 33 346 30 33 347 22 33 348 26 33 349 30 33 350 30 33 351 34 33 352 46 33 353 34 33 354 38 33 355 46 33 356 38 33 357 42 33 358 46 33 359 46 63 360 50 63 361 62 63 362 50 33 363 54 33 364 62 33 365 54 33 366 58 33 367 62 33 368 62 33 369 14 33 370 30 33 371</p>
        </triangles>
      </mesh>
    </geometry>
  </library_geometries>
  <library_visual_scenes>
    <visual_scene id="Scene" name="Scene">
      <node id="Camera_001" name="Camera.001" type="NODE">
        <matrix sid="transform">0.6859207 -0.3240135 0.6515582 7.358891 0.7276763 0.3054209 -0.6141704 -6.925791 -4.01133e-9 0.8953956 0.4452714 4.958309 0 0 0 1</matrix>
        <instance_camera url="#Camera_001-camera"/>
      </node>
      <node id="Cylinder" name="Cylinder" type="NODE">
        <matrix sid="transform">-0.005245395 -0.04587514 0.03653149 0.3168378 0.01548929 -0.006696401 -0.30307 0.1197296 0.04349538 -0.003147708 0.1123329 -0.1094828 0 0 0 1</matrix>
        <instance_geometry url="#Cylinder-mesh" name="Cylinder">
          <bind_material>
            <technique_common>
              <instance_material symbol="Material_002-material" target="#Material_002-material">
                <bind_vertex_input semantic="Cylinder-mesh-map-0" input_semantic="TEXCOORD" input_set="0"/>
              </instance_material>
            </technique_common>
          </bind_material>
        </instance_geometry>
      </node>
      <node id="Cylinder_001" name="Cylinder.001" type="NODE">
        <matrix sid="transform">-0.01634948 -0.01811754 0.2974289 0.3703807 0.05012943 0.1363332 0.04622875 -0.2562577 0.1409301 -0.05059614 0.01806134 0.03731181 0 0 0 1</matrix>
        <instance_geometry url="#Cylinder_001-mesh" name="Cylinder.001">
          <bind_material>
            <technique_common>
              <instance_material symbol="Material_001-material" target="#Material_001-material">
                <bind_vertex_input semantic="Cylinder_001-mesh-map-0" input_semantic="TEXCOORD" input_set="0"/>
              </instance_material>
            </technique_common>
          </bind_material>
        </instance_geometry>
      </node>
      <node id="Camera" name="Camera" type="NODE">
        <matrix sid="transform">0.6859207 -0.3240135 0.6515582 7.358891 0.7276763 0.3054208 -0.6141704 -6.925791 0 0.8953956 0.4452714 4.958309 0 0 0 1</matrix>
        <instance_camera url="#Camera-camera"/>
      </node>
      <node id="Light" name="Light" type="NODE">
        <matrix sid="transform">-0.2908646 -0.7711008 0.5663932 4.076245 0.9551712 -0.1998834 0.2183912 1.005454 -0.05518906 0.6045247 0.7946723 5.903862 0 0 0 1</matrix>
        <instance_light url="#Light-light"/>
      </node>
    </visual_scene>
  </library_visual_scenes>
  <scene>
    <instance_visual_scene url="#Scene"/>
  </scene>
</COLLADA>